<?xml version="1.0" encoding="UTF-8"?>
<svg width="155px" height="155px" viewBox="0 0 155 155" version="1.1" xmlns="http://www.w3.org/2000/svg" xmlns:xlink="http://www.w3.org/1999/xlink">
    <!-- Generator: Sketch 52.2 (67145) - http://www.bohemiancoding.com/sketch -->
    <title>Logo</title>
    <desc>Created with Sketch.</desc>
    <defs>
        <linearGradient x1="99.0812341%" y1="99.0812341%" x2="-2.22044605e-14%" y2="1.16180909e-14%" id="linearGradient-1">
            <stop stop-color="#FFFFFF" offset="0%"></stop>
            <stop stop-color="#000000" offset="100%"></stop>
        </linearGradient>
        <path d="M690.649533,271.751905 C687.387249,267.86495 684.64197,263.289576 682.415422,258.100342 C678.549596,249.071125 677.065148,240.40401 676.713082,235.107164 L672.425417,176.206127 C672.859583,176.18873 673.280928,176.180529 673.694877,176.180529 C689.865026,176.180529 690.800418,189.078559 690.800418,189.078559 L691.464117,196.653648 L712.172421,195.909311 L710.354151,182.769216 C710.354151,182.769216 709.103921,171.640943 705.575615,165.504326 C702.183895,159.605052 695.285812,156.27753 686.478977,156.27753 C682.910977,156.27753 679.028386,156.824288 674.940669,157.967262 C667.319223,160.098874 660.671136,166.618471 658.399224,171.400867 C648.826373,191.552144 667.171789,197.190217 667.171789,197.190217 C667.171789,197.190217 668.252889,214.934266 668.181637,214.934266 C637.976419,208.880159 640.0294,183.056016 640.0294,183.056016 C639.802825,173.366712 649.814525,151.035111 676.953956,144.713093 C682.06089,143.523397 686.655257,143 690.813238,143 C701.507376,143 709.304362,146.465205 715.430267,150.97124 C726.054878,158.786654 728.536601,175.077071 728.536601,175.077071 L742.200373,241.161768 C740.872235,241.352388 739.600802,241.440117 738.383116,241.440117 C732.247843,241.440117 727.509248,239.206361 724.116295,236.613732 C720.195982,233.617496 717.562388,229.221559 716.626996,224.352924 L714.28827,213.385448 L692.965577,213.995332 L693.735044,223.273573 C694.024734,227.358107 694.550368,231.084265 695.263376,234.501754 C696.685695,241.110571 699.043158,247.499443 703.199661,253.208843 C710.26293,262.910573 723.295053,268.592884 735.993109,268.592635 C749.767087,268.592138 763.147579,261.905532 768.084396,246.410151 C772.614661,232.190208 765.311997,216.327008 749.580945,211.64626 C747.85439,211.132555 743.484133,210.344975 743.484133,210.344975 L739.833541,193.66288 C756.318035,194.206159 774.776368,203.282099 783.972005,218.296084 C791.791673,231.063389 792.941806,246.909689 788.140095,260.904964 C781.139449,281.328626 760.164384,293.33718 738.774383,293.974402 C738.202152,293.99155 737.630907,294 737.060649,294 C719.093926,294 702.258352,285.582406 690.649533,271.751905 Z" id="path-2"></path>
    </defs>
    <g id="Splash" stroke="none" stroke-width="1" fill="none" fill-rule="evenodd">
        <g id="Splash-Copy" transform="translate(-638.000000, -141.000000)">
            <g id="Logo">
                <use fill="#528BFF" xlink:href="#path-2"></use>
                <use fill-opacity="0.4" fill="url(#linearGradient-1)" style="mix-blend-mode: overlay;" xlink:href="#path-2"></use>
                <path stroke="#080B0F" stroke-width="2" d="M692.3774,195.620175 L711.030136,194.949723 L709.360403,182.880861 C709.342677,182.723085 709.30513,182.420497 709.246472,181.993912 C709.148206,181.279283 709.026243,180.482074 708.879328,179.623172 C708.45991,177.171158 707.925564,174.720175 707.26769,172.439507 C706.524968,169.864695 705.670754,167.676037 704.708686,166.002757 C701.512789,160.444081 694.956191,157.27753 686.478977,157.27753 C682.94842,157.27753 679.151673,157.828172 675.210019,158.930304 C668.559106,160.790472 661.772994,166.629514 659.302484,171.82996 C654.599586,181.72977 656.323233,188.596165 662.03014,193.19876 C663.226424,194.163557 664.512093,194.943738 665.796956,195.5524 C666.245224,195.764753 666.660067,195.940032 667.030084,196.080135 C667.246249,196.161983 667.395203,196.212718 667.465557,196.23434 L668.127804,196.437868 L668.169938,197.129402 C668.177861,197.259449 668.177861,197.259449 668.213491,197.846318 C668.24813,198.417432 668.286727,199.055583 668.328292,199.745051 C668.447052,201.714981 668.565813,203.701505 668.676661,205.578891 C668.689186,205.791084 668.689186,205.791084 668.701701,206.003423 C668.848793,208.499901 668.968593,210.580447 669.052404,212.106936 C669.100108,212.975789 669.135524,213.65392 669.157606,214.125004 C669.169409,214.376826 669.177427,214.569942 669.181564,214.704195 C669.183885,214.779526 669.185069,214.838437 669.185008,214.884677 C669.184857,214.925689 669.184857,214.925689 669.181999,214.986826 C669.179333,215.028306 669.179333,215.028306 669.164784,215.121537 C669.151279,215.19141 669.151279,215.19141 669.093982,215.344617 C668.989551,215.624824 668.989551,215.624824 668.181637,215.934266 L667.985113,215.914765 C656.031895,213.518952 648.058385,207.936569 643.427946,200.135138 C641.409502,196.734435 640.147011,193.102057 639.494252,189.426618 C639.060723,186.98558 638.948663,184.876223 639.015579,183.281681 C639.020051,183.175121 639.02465,183.091316 639.028622,183.031243 C638.911552,177.251864 641.987151,169.056872 647.438465,162.009955 C654.262937,153.187957 664.144625,146.670201 676.727074,143.739171 C681.756987,142.567417 686.43884,142 690.813238,142 C700.716619,142 708.7979,144.851271 716.022815,150.165705 C719.479955,152.70876 722.310937,156.242497 724.586294,160.509246 C726.268041,163.662856 727.551819,167.033212 728.492972,170.402649 C728.82235,171.581861 729.085645,172.677779 729.289373,173.663108 C729.361031,174.009682 729.420202,174.318265 729.467688,174.585438 C729.49668,174.748555 729.515583,174.863372 729.515887,174.874592 L743.394955,242.000563 L742.342441,242.151625 C740.993527,242.345226 739.674493,242.440117 738.383116,242.440117 C732.654483,242.440117 727.671936,240.589198 723.509056,237.408251 C719.426839,234.288274 716.634928,229.694316 715.648985,224.561477 L713.484021,214.408861 L694.049397,214.964741 L694.732538,223.202827 C695.011693,227.138819 695.518332,230.827506 696.240992,234.291356 C697.78101,241.447067 700.242197,247.447394 704.008101,252.620264 C710.704963,261.818718 723.265638,267.592884 735.993073,267.592635 C750.779823,267.592102 762.696784,260.02627 767.131582,246.106598 C771.644591,231.940818 764.021925,216.986478 749.295769,212.604735 C748.906111,212.488799 748.334543,212.347474 747.619581,212.188242 C747.324576,212.12254 747.007948,212.054407 746.672784,211.984327 C745.937235,211.830529 745.147733,211.67457 744.358036,211.524653 C744.081489,211.472154 743.824745,211.424174 743.594461,211.381723 C743.456637,211.356317 743.358006,211.338352 743.306776,211.329121 L742.649929,211.210748 L738.581898,192.621086 L739.86648,192.663422 C757.530089,193.245561 775.841445,203.106451 784.824768,217.773787 C792.632702,230.521932 794.097531,246.622583 789.086066,261.229216 C782.256017,281.155178 761.759987,294.290089 738.804337,294.973953 C738.22416,294.99134 737.642952,295 737.060649,295 C719.055322,295 701.85922,286.662326 689.883588,272.394811 L689.88356,272.394778 C686.575304,268.453048 683.773738,263.802155 681.496135,258.493931 C678.09809,250.557286 676.174575,242.083534 675.715721,235.179767 L671.353046,175.248294 L672.385379,175.206929 C672.827383,175.189218 673.262052,175.180529 673.694877,175.180529 C681.093192,175.180529 686.123407,177.756086 689.130929,182.056429 C690.186299,183.565464 690.909978,185.178552 691.3642,186.792299 C691.639003,187.76861 691.763958,188.539595 691.796602,188.991277 L692.3774,195.620175 Z" fill="#FFFFFF"></path>
            </g>
        </g>
    </g>
</svg>